<svg width="24" height="23" viewBox="0 0 24 23" fill="none" xmlns="http://www.w3.org/2000/svg">
<path d="M20.1944 17.0833H6.97222L3.08333 0.75H0.75M3.86111 3.86111H22.5278L20.1944 13.9722H6.19444L3.86111 3.86111Z" stroke="white" stroke-width="1.5" stroke-linecap="round" stroke-linejoin="round"/>
<path d="M18.6389 21.75C19.498 21.75 20.1945 21.0536 20.1945 20.1945C20.1945 19.3354 19.498 18.6389 18.6389 18.6389C17.7798 18.6389 17.0834 19.3354 17.0834 20.1945C17.0834 21.0536 17.7798 21.75 18.6389 21.75Z" stroke="white" stroke-width="1.5" stroke-linecap="round" stroke-linejoin="round"/>
<path d="M8.52772 21.75C9.38683 21.75 10.0833 21.0536 10.0833 20.1945C10.0833 19.3354 9.38683 18.6389 8.52772 18.6389C7.66861 18.6389 6.97217 19.3354 6.97217 20.1945C6.97217 21.0536 7.66861 21.75 8.52772 21.75Z" stroke="white" stroke-width="1.5" stroke-linecap="round" stroke-linejoin="round"/>
</svg>
