<svg width="586" height="528" viewBox="0 0 586 528" fill="none" xmlns="http://www.w3.org/2000/svg">
<defs>
    <style>
        @import url('https://fonts.googleapis.com/css2?family=Poppins:wght@500&amp;display=swap');
        .svg-text {
            font-family: 'Poppins', sans-serif;
            font-size: 14px;
            font-weight: 500;
            fill: #000000;
            text-anchor: middle;
            dominant-baseline: middle;
        }
    </style>
    <clipPath id="bgblur_0_0_1_clip_path" transform="translate(-449 -24)"><rect x="461.5" y="36.5" width="124" height="38"/></clipPath>
    <clipPath id="bgblur_1_0_1_clip_path" transform="translate(-336 20)"><circle cx="366.5" cy="10.5" r="10"/></clipPath>
    <clipPath id="bgblur_2_0_1_clip_path" transform="translate(-402 -205)"><rect x="414.5" y="217.5" width="124" height="38"/></clipPath>
    <clipPath id="bgblur_3_0_1_clip_path" transform="translate(-289 -161)"><circle cx="319.5" cy="191.5" r="10"/></clipPath>
    <clipPath id="bgblur_4_0_1_clip_path" transform="translate(-406 -477)"><rect x="418.5" y="489.5" width="124" height="38"/></clipPath>
    <clipPath id="bgblur_5_0_1_clip_path" transform="translate(-293 -433)"><circle cx="323.5" cy="463.5" r="10"/></clipPath>
    <clipPath id="bgblur_6_0_1_clip_path" transform="translate(-32 -136)"><rect x="44.5" y="148.5" width="124" height="38"/></clipPath>
    <clipPath id="bgblur_7_0_1_clip_path" transform="translate(-252.5 -94)"><circle cx="10.5" cy="10.5" r="10" transform="matrix(-1 0 0 1 293.5 114)"/></clipPath>
    <clipPath id="bgblur_8_0_1_clip_path" transform="translate(12 -302)"><rect x="0.5" y="314.5" width="124" height="38"/></clipPath>
    <clipPath id="bgblur_9_0_1_clip_path" transform="translate(-208.5 -260)"><circle cx="10.5" cy="10.5" r="10" transform="matrix(-1 0 0 1 249.5 280)"/></clipPath>
</defs>

<foreignObject x="449" y="24" width="149" height="63"><div xmlns="http://www.w3.org/1999/xhtml" style="backdrop-filter:blur(6px);clip-path:url(#bgblur_0_0_1_clip_path);height:100%;width:100%"></div></foreignObject>
<rect data-figma-bg-blur-radius="12" x="461.5" y="36.5" width="124" height="38" fill="white" fill-opacity="0.41" stroke="black"/>
<path d="M380.5 11H441L460.5 30.5" stroke="black"/>
<text x="523.5" y="56.5" class="svg-text">Flat Cap</text>

<foreignObject x="336" y="-20" width="61" height="61"><div xmlns="http://www.w3.org/1999/xhtml" style="backdrop-filter:blur(10px);clip-path:url(#bgblur_1_0_1_clip_path);height:100%;width:100%"></div></foreignObject>
<circle data-figma-bg-blur-radius="20" cx="366.5" cy="10.5" r="10" fill="white" fill-opacity="0.63" stroke="black"/>

<foreignObject x="402" y="205" width="149" height="63"><div xmlns="http://www.w3.org/1999/xhtml" style="backdrop-filter:blur(6px);clip-path:url(#bgblur_2_0_1_clip_path);height:100%;width:100%"></div></foreignObject>
<rect data-figma-bg-blur-radius="12" x="414.5" y="217.5" width="124" height="38" fill="white" fill-opacity="0.41" stroke="black"/>
<path d="M333.5 192H394L413.5 211.5" stroke="black"/>
<text x="476.5" y="237.5" class="svg-text">Hugo Boss</text>

<foreignObject x="289" y="161" width="61" height="61"><div xmlns="http://www.w3.org/1999/xhtml" style="backdrop-filter:blur(10px);clip-path:url(#bgblur_3_0_1_clip_path);height:100%;width:100%"></div></foreignObject>
<circle data-figma-bg-blur-radius="20" cx="319.5" cy="191.5" r="10" fill="white" fill-opacity="0.63" stroke="black"/>

<foreignObject x="406" y="477" width="149" height="63"><div xmlns="http://www.w3.org/1999/xhtml" style="backdrop-filter:blur(6px);clip-path:url(#bgblur_4_0_1_clip_path);height:100%;width:100%"></div></foreignObject>
<rect data-figma-bg-blur-radius="12" x="418.5" y="489.5" width="124" height="38" fill="white" fill-opacity="0.41" stroke="black"/>
<path d="M337.5 464H398L417.5 483.5" stroke="black"/>
<text x="480.5" y="509.5" class="svg-text">Santoni</text>

<foreignObject x="293" y="433" width="61" height="61"><div xmlns="http://www.w3.org/1999/xhtml" style="backdrop-filter:blur(10px);clip-path:url(#bgblur_5_0_1_clip_path);height:100%;width:100%"></div></foreignObject>
<circle data-figma-bg-blur-radius="20" cx="323.5" cy="463.5" r="10" fill="white" fill-opacity="0.63" stroke="black"/>

<foreignObject x="32" y="136" width="149" height="63"><div xmlns="http://www.w3.org/1999/xhtml" style="backdrop-filter:blur(6px);clip-path:url(#bgblur_6_0_1_clip_path);height:100%;width:100%"></div></foreignObject>
<rect data-figma-bg-blur-radius="12" x="44.5" y="148.5" width="124" height="38" fill="white" fill-opacity="0.41" stroke="black"/>
<path d="M269 125H148.5L129 144.5" stroke="black"/>
<text x="106.5" y="168.5" class="svg-text">Suspender</text>

<foreignObject x="252.5" y="94" width="61" height="61"><div xmlns="http://www.w3.org/1999/xhtml" style="backdrop-filter:blur(10px);clip-path:url(#bgblur_7_0_1_clip_path);height:100%;width:100%"></div></foreignObject>
<circle data-figma-bg-blur-radius="20" cx="10.5" cy="10.5" r="10" transform="matrix(-1 0 0 1 293.5 114)" fill="white" fill-opacity="0.63" stroke="black"/>

<foreignObject x="-12" y="302" width="149" height="63"><div xmlns="http://www.w3.org/1999/xhtml" style="backdrop-filter:blur(6px);clip-path:url(#bgblur_8_0_1_clip_path);height:100%;width:100%"></div></foreignObject>
<rect data-figma-bg-blur-radius="12" x="0.5" y="314.5" width="124" height="38" fill="white" fill-opacity="0.41" stroke="black"/>
<path d="M225 291H104.5L85 310.5" stroke="black"/>
<text x="62.5" y="334.5" class="svg-text">Hugo Boss</text>

<foreignObject x="208.5" y="260" width="61" height="61"><div xmlns="http://www.w3.org/1999/xhtml" style="backdrop-filter:blur(10px);clip-path:url(#bgblur_9_0_1_clip_path);height:100%;width:100%"></div></foreignObject>
<circle data-figma-bg-blur-radius="20" cx="10.5" cy="10.5" r="10" transform="matrix(-1 0 0 1 249.5 280)" fill="white" fill-opacity="0.63" stroke="black"/>
</svg>
